<svg height="512" viewBox="0 0 32 32" width="512" xmlns="http://www.w3.org/2000/svg" data-name="Layer 2"><path fill="#fff" d="m14.9 16.35h-2.88a.6.6 0 1 0 0 1.2h2.88a.6.6 0 0 0 0-1.2z"/><path fill="#fff" d="m18.96 13.77a.59542.59542 0 0 0 -.6-.6h-6.34a.59542.59542 0 0 0 -.6.6.60181.60181 0 0 0 .6.6h6.34a.6018.6018 0 0 0 .6-.6z"/><path fill="#fff" d="m12.02 11.18h6.34a.6.6 0 1 0 0-1.2h-6.34a.6.6 0 1 0 0 1.2z"/><path fill="#fff" d="m16 1a15 15 0 1 0 15 15 15.00543 15.00543 0 0 0 -15-15zm-.22 21.52a4.37621 4.37621 0 0 0 -.35 1.2h-4.04a2.99166 2.99166 0 0 1 -2.99-2.99v-10.74a2.99166 2.99166 0 0 1 2.99-2.99h7.6a2.99166 2.99166 0 0 1 2.99 2.99v5.61a2.84441 2.84441 0 0 0 -1.2-.7 2.96621 2.96621 0 0 0 -2.55 5.27 4.61441 4.61441 0 0 0 -2.45 2.35zm6.23-4.77a2.07 2.07 0 1 1 -2.07-2.07 2.07415 2.07415 0 0 1 2.07 2.07zm.99 7.25h-6.12a.60175.60175 0 0 1 -.6-.6 3.66 3.66 0 0 1 7.32 0 .60176.60176 0 0 1 -.6.6z"/></svg>